Coordinates
version=1
nRows=15
nColumns=34
inDegrees=yes

Units are S.I. units (second, meters, Newtons, ...)
If the header above contains a line with 'inDegrees', this indicates whether rotational values are in degrees (yes) or radians (no).

endheader
time	pelvis_tilt	pelvis_list	pelvis_rotation	pelvis_tx	pelvis_ty	pelvis_tz	hip_flexion_r	hip_adduction_r	hip_rotation_r	knee_angle_r	ankle_angle_r	subtalar_angle_r	mtp_angle_r	hip_flexion_l	hip_adduction_l	hip_rotation_l	knee_angle_l	ankle_angle_l	subtalar_angle_l	mtp_angle_l	lumbar_extension	lumbar_bending	lumbar_rotation	arm_flex_r	arm_add_r	arm_rot_r	elbow_flex_r	pro_sup_r	arm_flex_l	arm_add_l	arm_rot_l	elbow_flex_l	pro_sup_l
      0.00000000	     -1.55146411	      1.60369553	    -17.49674338	      0.12477879	      0.64489523	      0.04026490	     79.20346791	    -15.16878523	      1.06105862	    101.51018393	     30.68606932	      2.21515888	      0.00000000	     81.81155543	    -19.01649999	     -5.36715256	     99.81716021	     30.63196704	     -3.19212978	      0.00000000	    -26.67537682	     -1.28227179	      0.20086327	     63.32707062	    -16.18881002	     29.94927099	    113.46258972	    119.74817918	     66.63455212	    -19.27903619	     26.14958288	    115.02563972	    119.74817918
      0.01666670	     -1.52802801	      1.54723713	    -17.56447549	      0.12393690	      0.64601001	      0.03981878	     78.97247562	    -15.19890493	      0.85755593	    101.15811637	     30.82861451	      2.22469384	      0.00000000	     81.62012492	    -19.14727487	     -5.53053311	     99.60677092	     30.98353444	     -3.01803079	      0.00000000	    -26.90975004	     -1.22129569	      0.16557103	     63.58710580	    -16.10296501	     29.96476520	    112.86508985	    119.74817918	     66.68358584	    -19.32247102	     25.91231100	    114.69357089	    119.74817918
      0.03333330	     -1.57219872	      1.51809312	    -17.52679162	      0.12437885	      0.64863712	      0.04006799	     78.66682233	    -15.07646884	      0.81176497	    100.81903901	     30.69066854	      2.27875663	      0.00000000	     81.32723358	    -19.11349476	     -5.54570976	     99.24822004	     30.86276798	     -2.93325329	      0.00000000	    -26.71132933	     -1.24163058	      0.08283673	     63.35521701	    -16.06599132	     30.07968676	    112.91943776	    119.74817918	     66.42877860	    -19.31899011	     25.97784646	    114.78603541	    119.74817918
      0.05000000	     -1.33755074	      1.29261679	    -17.54799990	      0.12484275	      0.65274308	      0.03979247	     77.74350032	    -15.14255934	      0.42100390	    100.22076275	     30.57499451	      2.24928734	      0.00000000	     80.56815234	    -19.23652710	     -5.66990829	     98.80963004	     30.91785654	     -2.62313150	      0.00000000	    -27.16757836	     -0.99746401	     -0.18091040	     63.65707987	    -15.72257716	     30.27523876	    112.86804550	    119.74817918	     66.30506173	    -19.62671172	     25.81572427	    115.44798624	    119.74817918
      0.06666670	     -1.54986551	      1.30968135	    -17.53688392	      0.12560597	      0.65620821	      0.04008605	     77.40697363	    -15.15852717	      0.13643213	     99.64876411	     30.47907275	      2.30740944	      0.00000000	     80.23900723	    -19.30461339	     -5.88706044	     98.28156547	     30.84794923	     -2.57042225	      0.00000000	    -26.95928638	     -0.95127392	     -0.24514155	     63.63632349	    -15.73383212	     30.37915148	    113.38442302	    119.74817918	     66.22272626	    -19.69556220	     25.98783751	    116.03351136	    119.74817918
      0.08333330	     -1.65113417	      1.30895511	    -17.53264359	      0.12642400	      0.66004494	      0.04061929	     76.93202073	    -15.15852689	     -0.12051232	     99.08158069	     30.40866598	      2.32144925	      0.00000000	     79.78823472	    -19.32301006	     -6.02799115	     97.75290353	     30.80798059	     -2.52335931	      0.00000000	    -26.86201831	     -0.93842914	     -0.35123482	     63.52356002	    -15.75463638	     30.40549291	    113.96070534	    119.74817918	     66.11440613	    -19.83268046	     26.09136087	    116.70010477	    119.74817918
      0.10000000	     -1.88650741	      1.37605723	    -17.53950506	      0.12701297	      0.66375395	      0.04124932	     76.61812717	    -15.10190509	     -0.34082409	     98.45025711	     30.39405760	      2.36950161	      0.00000000	     79.46472571	    -19.29880010	     -6.19164218	     97.16789965	     30.80624895	     -2.48213087	      0.00000000	    -26.49211652	     -0.95170690	     -0.40013128	     63.54378715	    -15.76891229	     30.40840931	    114.07676854	    119.74817918	     66.11261121	    -19.86161353	     26.12318961	    116.80092333	    119.74817918
      0.11666670	     -1.66714574	      1.31596298	    -17.50258210	      0.12790387	      0.66926862	      0.04186970	     75.56094738	    -15.18248144	     -0.67918146	     97.61389608	     30.55039642	      2.39059136	      0.00000000	     78.39374638	    -19.30123599	     -6.51930159	     96.37549213	     31.04649075	     -2.31720416	      0.00000000	    -26.76936780	     -0.93831898	     -0.49620515	     63.57410843	    -15.79760841	     30.57818660	    114.70345698	    119.74817918	     66.13023515	    -19.95244240	     26.30572484	    117.42720503	    119.74817918
      0.13333330	     -1.73648804	      1.36097917	    -17.49029518	      0.12912331	      0.67406665	      0.04303386	     74.90781204	    -15.23436249	     -1.02321130	     96.89580988	     30.48058999	      2.40290318	      0.00000000	     77.68158613	    -19.39785647	     -6.86025952	     95.65165494	     30.99942104	     -2.22250324	      0.00000000	    -26.44433541	     -0.99912062	     -0.57989954	     63.34722942	    -15.64073271	     30.82983807	    114.81342926	    119.74817918	     65.81253542	    -19.74804368	     26.43460717	    117.45823631	    119.74817918
      0.15000000	     -1.95451295	      1.45619144	    -17.48048859	      0.13021667	      0.67826869	      0.04423088	     74.47928148	    -15.14825396	     -1.22970394	     96.17103017	     30.41776034	      2.45135693	      0.00000000	     77.24164296	    -19.34450757	     -6.99470973	     94.98289778	     30.95668206	     -2.15775682	      0.00000000	    -25.95349662	     -1.07967290	     -0.61107509	     63.28684790	    -15.60648028	     30.91004474	    114.89830249	    119.74817918	     65.69984334	    -19.71634085	     26.46178718	    117.48817013	    119.74817918
      0.16666670	     -1.27036293	      1.42940253	    -17.57004431	      0.13193558	      0.68473589	      0.04545621	     73.01387877	    -15.23273272	     -1.38579291	     95.47697853	     30.44504231	      2.41743921	      0.00000000	     75.50314846	    -19.44534738	     -7.54987233	     94.24224781	     31.22086375	     -1.85049614	      0.00000000	    -26.54275086	     -1.27631413	     -0.66318085	     63.46799488	    -15.57615195	     31.08852249	    115.18458252	    119.74817918	     65.72181611	    -19.66084464	     26.29026472	    117.72598198	    119.74817918
      0.18333330	     -1.54584336	      1.53124927	    -17.56869453	      0.13305719	      0.68890269	      0.04679518	     72.64876994	    -15.14357691	     -1.61768665	     94.76982966	     30.39654239	      2.47520786	      0.00000000	     75.11580853	    -19.39755906	     -7.69095202	     93.55313475	     31.17428133	     -1.79259024	      0.00000000	    -25.98682884	     -1.36091437	     -0.68733156	     63.49938729	    -15.57847325	     31.09704561	    115.25445055	    119.74817918	     65.70904190	    -19.66893041	     26.28061393	    117.75762913	    119.74817918
      0.20000000	     -1.80621601	      1.62810292	    -17.56278051	      0.13413680	      0.69343943	      0.04812779	     72.23559748	    -15.06734739	     -1.86645335	     93.99516666	     30.34055049	      2.51757753	      0.00000000	     74.66380470	    -19.37051065	     -7.86455369	     92.78056986	     31.12807491	     -1.74472196	      0.00000000	    -25.46593360	     -1.42375741	     -0.71663618	     63.45469212	    -15.57997642	     31.12067511	    115.31535236	    119.74817918	     65.64998023	    -19.66344657	     26.26293887	    117.77949267	    119.74817918
      0.21666670	     -1.20076478	      1.56164535	    -17.62031919	      0.13587513	      0.70031670	      0.04945868	     70.71150287	    -15.06065539	     -2.06659344	     93.14075433	     30.35054724	      2.33384259	      0.00000000	     72.95644054	    -19.37223800	     -8.33879474	     91.89834105	     31.25548905	     -1.74594371	      0.00000000	    -25.96509712	     -1.54647267	     -0.75875903	     63.35663216	    -15.54189568	     30.89814019	    115.39430955	    119.74817918	     65.59880739	    -19.54982333	     25.92070673	    117.77760701	    119.74817918
      0.23333330	     -1.34185540	      1.62098509	    -17.60900353	      0.13735470	      0.70549108	      0.05100257	     70.07881064	    -14.97693401	     -2.32332250	     92.33393761	     30.27694756	      2.36376516	      0.00000000	     72.28218593	    -19.36241932	     -8.56922470	     91.08454334	     31.19707935	     -1.70783520	      0.00000000	    -25.49391784	     -1.60554442	     -0.84749809	     63.12580504	    -15.60250172	     30.95457983	    115.25498580	    119.74817918	     65.45136372	    -19.60938492	     26.03082124	    117.63236991	    119.74817918
